<?xml version="1.0" encoding="utf-8"?>
<!-- Svg Vector Icons : http://www.sfont.cn -->
<!DOCTYPE svg PUBLIC "-//W3C//DTD SVG 1.1//EN" "http://www.w3.org/Graphics/SVG/1.1/DTD/svg11.dtd">
<svg version="1.1" xmlns="http://www.w3.org/2000/svg" xmlns:xlink="http://www.w3.org/1999/xlink" x="0px" y="0px" viewBox="0 0 1000 1000" enable-background="new 0 0 1000 1000" xml:space="preserve">
<metadata> Svg Vector Icons : http://www.sfont.cn </metadata>
<g><g transform="translate(0.000000,511.000000) scale(0.100000,-0.100000)"><path fill="#ff9933" d="M5056.2,4993.4c-21.2-11.6-46.4-34.8-57.9-52.2c-11.6-17.4-23.2-258.9-29-562.3l-9.7-531.4l-231.9-11.6C2849.6,3733.5,1203.4,2332.7,778.3,475.8C670.1,2.4,646.9-596.6,718.4-1083.6c202.9-1391.2,1074.3-2600.8,2338-3240.4c409.6-208.7,772.9-328.5,1236.6-411.6c365.2-63.7,946.8-73.4,1294.6-19.3c759.4,119.8,1410.5,396.1,2038.5,869.5c199,150.7,626.1,577.8,776.8,776.8c560.4,743.9,852.1,1534.2,906.2,2448.1l13.5,226.1l-59.9,58c-71.5,71.5-143,77.3-204.8,15.4c-40.6-40.6-46.4-69.6-58-286C8897.6-2469,7711.2-3927.8,5974.1-4364.5c-469.5-117.9-1101.4-150.7-1565.1-81.2c-1789.3,272.5-3141.8,1632.7-3389.2,3410.4C956-586.9,985,14,1089.4,466.1C1359.9,1639,2188.8,2659.2,3280.5,3163.5c467.6,216.4,1082.1,363.3,1520.7,365.2h168.1V2951c0-537.2,1.9-579.7,36.7-622.2c81.1-100.5,98.5-92.7,1257.9,577.7c1159.4,672.4,1153.6,668.6,1103.3,792.2c-19.3,46.4-200.9,158.4-1099.4,678.2c-591.3,342-1097.5,626.1-1124.6,631.9C5116.2,5012.7,5077.5,5006.9,5056.2,4993.4z M6576.9,3839.8c179.7-102.4,324.6-189.4,324.6-195.2c0-5.8-322.7-197.1-718.8-425.1c-396.1-228-761.3-438.6-811.5-469.5l-92.7-52.2v944.9v946.8l488.8-282.1C6034,4152.8,6399.2,3942.2,6576.9,3839.8z"/></g></g>
</svg>
